
<svg width="500" height="580" xmlns="http://www.w3.org/2000/svg">
  <!-- Background -->
  <rect width="500" height="580" fill="#FFFFFF"/>
  
  <!-- Title background -->
  <rect width="500" height="70" fill="#8FBC8F"/>
  
  <!-- Title text -->
  <text x="250" y="40" font-family="serif" font-size="32" font-weight="bold" 
        text-anchor="middle" fill="#FFFFFF">Saintfest</text>
  
  <!-- QR Code -->
  <g transform="translate(50, 80)">
    <svg    viewBox="0 0 29 29" shape-rendering="crispEdges"><path fill="#FFFFFF" d="M0 0h29v29H0z"/><path stroke="#8FBC8F" d="M2 2.5h7m1 0h1m1 0h1m1 0h3m3 0h7M2 3.5h1m5 0h1m1 0h3m3 0h1m3 0h1m5 0h1M2 4.5h1m1 0h3m1 0h1m1 0h1m2 0h1m1 0h2m3 0h1m1 0h3m1 0h1M2 5.5h1m1 0h3m1 0h1m2 0h1m2 0h2m1 0h2m1 0h1m1 0h3m1 0h1M2 6.5h1m1 0h3m1 0h1m1 0h1m1 0h5m3 0h1m1 0h3m1 0h1M2 7.5h1m5 0h1m3 0h2m1 0h2m1 0h1m1 0h1m5 0h1M2 8.5h7m1 0h1m1 0h1m1 0h1m1 0h1m1 0h1m1 0h7M11 9.5h3m1 0h1m2 0h1M2 10.5h1m2 0h7m4 0h2m1 0h1m2 0h1m1 0h3M2 11.5h2m1 0h1m1 0h1m1 0h1m2 0h2m1 0h3m3 0h5M4 12.5h1m1 0h1m1 0h2m1 0h1m5 0h3m1 0h3m2 0h1M2 13.5h1m1 0h1m2 0h1m4 0h3m1 0h3m1 0h1m2 0h4M2 14.5h1m1 0h1m1 0h1m1 0h2m1 0h4m2 0h1m2 0h2m4 0h1M2 15.5h1m2 0h1m1 0h1m6 0h1m1 0h3m3 0h1m2 0h1M2 16.5h2m1 0h1m2 0h2m5 0h3m1 0h1m2 0h5M2 17.5h1m6 0h1m1 0h2m1 0h1m7 0h1m1 0h1m1 0h1M2 18.5h1m1 0h6m1 0h2m2 0h1m1 0h6m1 0h2M10 19.5h3m3 0h1m1 0h1m3 0h1m2 0h1M2 20.5h7m1 0h1m2 0h3m2 0h1m1 0h1m1 0h2m2 0h1M2 21.5h1m5 0h1m1 0h3m2 0h1m1 0h2m3 0h1M2 22.5h1m1 0h3m1 0h1m1 0h1m5 0h8M2 23.5h1m1 0h3m1 0h1m1 0h2m1 0h1m1 0h2m2 0h3m1 0h1m1 0h2M2 24.5h1m1 0h3m1 0h1m4 0h1m1 0h1m5 0h2m1 0h3M2 25.5h1m5 0h1m3 0h3m5 0h3m1 0h3M2 26.5h7m1 0h1m3 0h1m3 0h3m2 0h1m2 0h1"/></svg>

  </g>
  
  <!-- URL text -->
  <text x="250" y="520" font-family="sans-serif" font-size="18" 
        text-anchor="middle" fill="#8FBC8F">saintfest.community</text>
  
  <!-- Decorative border -->
  <rect x="10" y="10" width="480" height="560" fill="none" 
        stroke="#8FBC8F" stroke-width="3"/>
</svg>